<?xml version="1.0" encoding="UTF-8"?><svg id="a" xmlns="http://www.w3.org/2000/svg" xmlns:xlink="http://www.w3.org/1999/xlink" viewBox="0 0 272.57 144"><defs><style>.j{fill:#fff;}.k{fill:#ef3e45;}.l{clip-path:url(#h);}.m{fill:url(#g);}.n{clip-path:url(#b);}.o{clip-path:url(#c);}.p{clip-path:url(#d);}.q{fill:url(#e);}.r{fill:none;}.s{clip-path:url(#f);}.t{clip-path:url(#i);}</style><clipPath id="b"><rect class="r" width="144" height="144"/></clipPath><clipPath id="c"><rect class="r" width="144" height="144"/></clipPath><clipPath id="d"><path class="r" d="M124.55,56.24c.06,1.01-2.93,3.7-14.67,6.7-9.97,2.54-23.33,4.55-37.61,5.65-3.08,.24-16.13,1.11-19.27,1.26h-.2l-.08,.67v1.68h.07c3.07-.14,16.31-1.07,19.62-1.32,10.12-.78,19.93-2.03,28.39-3.62,3.48-.65,6.73-1.36,9.67-2.11,10.82-2.76,16.07-5.67,16.03-8.9h-1.94Z"/></clipPath><linearGradient id="e" x1="-166.45" y1="472.71" x2="-165.45" y2="472.71" gradientTransform="translate(12415.77 35175.93) scale(74.28 -74.28)" gradientUnits="userSpaceOnUse"><stop offset="0" stop-color="#ef3e45"/><stop offset=".06" stop-color="#f1585e"/><stop offset=".17" stop-color="#f48488"/><stop offset=".29" stop-color="#f7aaad"/><stop offset=".41" stop-color="#fac9cb"/><stop offset=".54" stop-color="#fce0e1"/><stop offset=".67" stop-color="#fdf1f2"/><stop offset=".82" stop-color="#fefbfb"/><stop offset="1" stop-color="#fff"/></linearGradient><clipPath id="f"><path class="r" d="M17.58,63.15v.36c.71,2.91,6.57,5.49,15.42,6.66,2.24,.34,3.76,.43,6.27,.57,1.14,.07,4.42,.19,4.42,.19l.03-.7s-3.82-.16-4.95-.21c-1.58-.07-2.72-.12-4.63-.39-10.08-1.24-15.47-4.17-15.81-6.48h-.74Z"/></clipPath><linearGradient id="g" x1="-174.26" y1="438.18" x2="-173.26" y2="438.18" gradientTransform="translate(5336.52 -2032.28) rotate(-90) scale(12.11 -12.11)" gradientUnits="userSpaceOnUse"><stop offset="0" stop-color="#ef3e45"/><stop offset=".06" stop-color="#f1585e"/><stop offset=".17" stop-color="#f48488"/><stop offset=".29" stop-color="#f7aaad"/><stop offset=".41" stop-color="#fac9cb"/><stop offset=".54" stop-color="#fce0e1"/><stop offset=".67" stop-color="#fdf1f2"/><stop offset=".82" stop-color="#fefbfb"/><stop offset="1" stop-color="#fff"/></linearGradient><clipPath id="h"><rect class="r" width="144" height="144"/></clipPath><clipPath id="i"><rect class="r" width="144" height="144"/></clipPath></defs><g><rect class="k" width="144" height="144"/><g class="n"><path class="j" d="M126.48,56.13c-.14-2.94-5.83-5.05-16.93-6.26-5.36-.59-11.67-.88-18.75-.88-6.14,0-12.72,.22-19.54,.67-11.84,.77-23.98,2.38-34.2,4.54-.84,.18-1.65,.39-2.44,.59-.45,.12-.89,.23-1.32,.34-7.27,1.76-15.91,4.59-15.75,8.08l.8-.04c-.11-2.24,5.55-4.96,15.14-7.28,.74-.18,1.49-.32,2.28-.48,.49-.1,.99-.19,1.49-.3,8.97-1.89,20.75-3.35,34.07-4.21,6.13-.4,12.19-.6,18.02-.6,7.45,0,14.19,.32,20.02,.96,11.08,1.21,15.11,3.4,15.19,5.03l1.94-.14Z"/></g><polygon class="j" points="58.99 42.05 33.57 42.05 22.2 87.63 47.83 87.63 49.56 80.54 32.5 80.54 35.78 67.47 50.37 67.47 52.13 60.44 37.48 60.44 40.29 49.14 57.16 49.14 58.99 42.05"/><g class="o"><path class="j" d="M56.45,30.81h0c-1.03,0-2.02,.55-3.83,1.55l-.15,.09-8.99,5.39-1.25,.75,1.45,.14,1.95,.19h.09l.09-.02,10.26-3.16c1.19-.3,2.37-.7,2.72-2,.15-.55,.06-1.18-.26-1.73-.31-.54-.79-.93-1.35-1.08-.24-.06-.48-.1-.72-.1"/><path class="j" d="M72.43,71.37c-.85,.07-2.46,.18-4.41,.31-.42,.03-.85,.06-1.29,.09l-2.66,10.72h8.48l2.82-11.36c-.98,.08-1.96,.17-2.94,.25"/><path class="j" d="M62.61,36.91l-1.76,7.09h12.77l-.28,1.15-5.79,23.32c.45-.03,.88-.06,1.29-.09,1.48-.1,2.68-.19,3.38-.24,1.34-.1,2.66-.22,3.98-.34l5.91-23.81h12.01l1.48-5.94,.29-1.15H62.61Z"/><path class="j" d="M121.94,36.76c-4.18-2.51-8.18-3.04-10.8-3.04-4.39,0-8.14,1.46-10.86,4.21-2.42,2.45-3.8,5.84-3.8,9.29,0,4.03,1.77,6.91,3.88,9.21,1.04,1.13,2.15,2.12,3.19,3.04,.96,.9,1.94,1.82,2.73,2.86,.21,.28,.41,.57,.59,.87,.05-.01,.09-.02,.14-.03,.93-.22,1.84-.43,2.72-.66,2.02-.52,3.86-1.04,5.51-1.58-.45-.85-.97-1.61-1.53-2.3-.81-1.02-1.7-1.91-2.51-2.73l-.04-.03-1.36-1.28c-.73-.62-1.47-1.29-2.15-2-1.5-1.58-2.68-3.4-2.68-5.61,0-3.08,2.34-6.35,6.67-6.35,1.6,0,4.78,.46,8.05,3.54l.59,.56,.2-.79,1.6-6.47,.04-.16,.08-.34-.3-.18Z"/><path class="j" d="M116.39,63.95c-1.73,.57-3.66,1.13-5.81,1.68-.62,.16-1.25,.31-1.9,.46-.24,.06-.47,.11-.71,.17,.04,.3,.06,.6,.06,.92,0,3.66-2.33,7.36-7.55,7.36-3.51,0-6.83-1.49-9.86-4.42l-.59-.57-.2,.8-1.76,7.08-.08,.34,.29,.18c.27,.17,.54,.33,.81,.48,3.54,2.01,7.6,3.07,11.81,3.07,10.39,0,15.83-7.3,15.83-14.51,0-1.11-.12-2.12-.34-3.05"/></g><g class="p"><rect class="q" x="52.71" y="56.24" width="73.82" height="15.95"/></g><g class="s"><rect class="m" x="23.13" y="53.4" width="15.04" height="27.27" transform="translate(-42.4 76.88) rotate(-73.1)"/></g><polygon class="j" points="14.05 107.25 9 107.25 9 98.24 10.16 98.24 10.16 106.35 14.58 106.35 14.05 107.25"/><g class="l"><path class="j" d="M19.22,103.2c-.01-.27-.05-.75-.41-1.14-.2-.2-.55-.41-1.05-.41-.75,0-1.4,.5-1.63,1.54h3.09Zm.37,4.01c-.2,.06-.66,.2-1.38,.2-1.89,0-3.32-1.08-3.32-3.29,0-1.97,1.21-3.32,2.9-3.32,.82,0,1.55,.31,2.03,.96,.54,.74,.56,1.76,.57,2.27h-4.34c0,.4,.01,1.22,.56,1.83,.47,.5,1.16,.68,1.85,.68,.76,0,1.39-.23,1.72-.36l-.6,1.03Z"/><path class="j" d="M29.38,101.87c-.31-.12-.79-.23-1.26-.23-1.28,0-2.2,.87-2.2,2.3,0,1.51,.88,2.22,1.98,2.22,.69,0,1.28-.27,1.48-.37v-3.92Zm-.57,5c-.24,.06-.6,.14-1.1,.14-1.86,0-2.97-1.26-2.97-2.96s1.05-3.27,3.4-3.27c.36,0,1.39,.04,2.34,.5v5.16c0,.72,0,1.3-.37,1.94-.52,.91-1.51,1.46-2.77,1.46-.38,0-1.4-.05-2.3-.59v-1.11c.17,.14,.35,.29,.73,.46,.51,.22,1.08,.33,1.57,.33,.87,0,1.6-.34,1.89-1.19,.17-.47,.17-.94,.17-1.72l-.57,.85Z"/><path class="j" d="M33.69,100.12v-.85l2.39-.92v.84l-2.39,.93Zm2.28,3.08c-.01-.27-.05-.75-.41-1.14-.2-.2-.55-.41-1.05-.41-.75,0-1.41,.5-1.63,1.54h3.09Zm.37,4.01c-.21,.06-.66,.2-1.38,.2-1.89,0-3.32-1.08-3.32-3.29,0-1.97,1.21-3.32,2.9-3.32,.82,0,1.55,.31,2.03,.96,.54,.74,.56,1.76,.57,2.27h-4.34c0,.4,.01,1.22,.56,1.83,.47,.5,1.16,.68,1.85,.68,.77,0,1.39-.23,1.72-.36l-.6,1.03Z"/><path class="j" d="M38.16,107.25v-6.31h1.08v1.02l.66-.96c.56-.2,1.16-.22,1.35-.22,.35,0,1.02,.05,1.58,.52,.64,.55,.65,1.21,.65,1.8v4.13h-1.1v-3.69c0-1.08-.19-1.88-1.48-1.88-.5,0-1.14,.17-1.67,.52v5.04h-1.08Z"/><path class="j" d="M46.16,107.25h-1.08v-6.31h1.08v6.31Zm.06-8.54c0,.36-.28,.63-.61,.63s-.61-.29-.61-.63,.26-.62,.61-.62c.33,0,.61,.27,.61,.62"/><path class="j" d="M51.66,103.2c-.01-.27-.05-.75-.41-1.14-.2-.2-.55-.41-1.05-.41-.75,0-1.4,.5-1.63,1.54h3.09Zm.37,4.01c-.2,.06-.66,.2-1.38,.2-1.89,0-3.32-1.08-3.32-3.29,0-1.97,1.21-3.32,2.9-3.32,.82,0,1.55,.31,2.03,.96,.54,.74,.56,1.76,.57,2.27h-4.34c0,.4,.01,1.22,.56,1.83,.47,.5,1.16,.68,1.85,.68,.76,0,1.39-.23,1.72-.36l-.6,1.03Z"/><path class="j" d="M58.66,106.12c.18,.11,.65,.41,1.4,.41,1.43,0,2.08-1.16,2.08-2.51,0-.78-.22-1.31-.48-1.65-.38-.48-.94-.7-1.56-.7-.66,0-1.17,.23-1.44,.36v4.1Zm.6-5.17c.2-.06,.54-.17,1.03-.17,1.88,0,3.01,1.24,3.01,3.19s-1.17,3.43-3.09,3.43c-.77,0-1.23-.2-1.56-.37v2.92h-1.08v-9.02h1.08v.91l.6-.89Z"/><path class="j" d="M68.8,104.09c0-1.14-.46-2.44-1.76-2.44-1.08,0-1.79,.94-1.79,2.47,0,.47,.05,1.17,.42,1.7,.34,.5,.86,.73,1.34,.73,1.26,0,1.79-1.3,1.79-2.46m-1.8,3.32c-1.78,0-2.91-1.22-2.91-3.2s1.12-3.41,3-3.41c1.71,0,2.86,1.29,2.86,3.27s-1.12,3.34-2.95,3.34"/><path class="j" d="M76.47,107.25h-1.09v-1.02l-.66,.96c-.57,.2-1.2,.22-1.35,.22-1.67,0-2.23-1.02-2.23-2.27v-4.2h1.1v3.8c0,1,.21,1.77,1.48,1.77,.51,0,1.16-.18,1.67-.52v-5.05h1.09v6.32Z"/><path class="j" d="M79.17,107.25h-1.11v-6.31h1.11v.94l.59-.84c.15-.06,.55-.23,1.12-.23,.34,0,.5,.05,.7,.13v1.02c-.25-.12-.55-.24-.99-.24-.61,0-1.12,.29-1.42,.5v5.03Z"/></g><rect class="j" x="86.03" y="98.24" width="1.09" height="9.01"/><polygon class="j" points="88.85 100.6 88.12 100.6 89.07 98.24 90.1 98.24 88.85 100.6"/><g class="t"><path class="j" d="M92.43,107.25h-1.09v-6.31h1.09v6.31Zm.06-8.54c0,.36-.28,.63-.61,.63s-.61-.29-.61-.63,.26-.62,.61-.62c.33,0,.61,.27,.61,.62"/><path class="j" d="M94,107.25v-6.31h1.08v1.02l.66-.96c.56-.2,1.16-.22,1.35-.22,.35,0,1.02,.05,1.58,.52,.64,.55,.65,1.21,.65,1.8v4.13h-1.1v-3.69c0-1.08-.19-1.88-1.48-1.88-.5,0-1.14,.17-1.67,.52v5.04h-1.08Z"/><path class="j" d="M105.16,102.08c-.43-.24-.92-.4-1.43-.4-.23,0-.73,.03-1.21,.42-.62,.5-.84,1.33-.84,2.15,0,1.44,.81,2.27,2.03,2.27,.66,0,1.21-.23,1.45-.35v-4.1Zm1.09,5.17h-1.09v-.88l-.59,.88c-.24,.08-.51,.15-.98,.15-2.07,0-3.08-1.35-3.08-3.19s1.08-3.42,3.05-3.42c.32,0,.98,.05,1.6,.38v-2.94h1.09v9.01Z"/><path class="j" d="M113.16,107.25h-1.08v-1.02l-.66,.96c-.58,.2-1.2,.22-1.35,.22-1.67,0-2.23-1.02-2.23-2.27v-4.2h1.1v3.8c0,1,.2,1.77,1.48,1.77,.51,0,1.16-.18,1.67-.52v-5.05h1.08v6.32Z"/><path class="j" d="M117,103.73c.59,.28,1.35,.65,1.35,1.74s-.82,1.94-2.21,1.94c-.6,0-1.17-.17-1.72-.41v-1.01c.15,.1,.32,.2,.61,.33,.28,.11,.64,.23,1,.23,.83,0,1.17-.56,1.17-1.02,0-.67-.57-.89-.98-1.06l-.43-.15c-.46-.19-1.34-.55-1.34-1.66s.91-1.86,2.14-1.86c.73,0,1.26,.26,1.46,.36v.97c-.36-.32-.82-.5-1.3-.5-.84,0-1.16,.51-1.16,.97,0,.52,.45,.73,.83,.89l.59,.24Z"/><path class="j" d="M121.7,107.33c-.18,.04-.36,.08-.56,.08-.43,0-.88-.14-1.15-.49-.31-.37-.31-.73-.31-1.4v-3.78h-.74l.6-.8h.14v-1.23l1.1-.35v1.57h1.3v.8h-1.3v3.27c0,.69,0,.77,.03,.91,.1,.6,.56,.65,.78,.65,.13,0,.4-.03,.77-.18l-.65,.94Z"/><path class="j" d="M124.1,107.25h-1.11v-6.31h1.11v.94l.59-.84c.15-.06,.55-.23,1.12-.23,.34,0,.5,.05,.7,.13v1.02c-.25-.12-.55-.24-.99-.24-.61,0-1.12,.29-1.42,.5v5.03Z"/><path class="j" d="M128.32,107.25h-1.08v-6.31h1.08v6.31Zm.06-8.54c0,.36-.28,.63-.61,.63s-.61-.29-.61-.63,.26-.62,.61-.62c.33,0,.61,.27,.61,.62"/><path class="j" d="M133.83,103.2c-.01-.27-.05-.75-.41-1.14-.2-.2-.55-.41-1.05-.41-.75,0-1.4,.5-1.63,1.54h3.09Zm.37,4.01c-.21,.06-.66,.2-1.38,.2-1.89,0-3.32-1.08-3.32-3.29,0-1.97,1.21-3.32,2.9-3.32,.82,0,1.54,.31,2.03,.96,.54,.74,.56,1.76,.57,2.27h-4.34c0,.4,.01,1.22,.56,1.83,.47,.5,1.16,.68,1.85,.68,.76,0,1.39-.23,1.72-.36l-.6,1.03Z"/></g></g><path class="j" d="M272.17,107.13c-.35,.12-.74,.25-.88,.27-.22,.05-.45,.08-.67,.08-1.5,0-2.37-1.09-2.37-2.48,0-1.51,.89-2.47,2.16-2.47,.56,0,1.09,.19,1.55,.49v-1.06c-.62-.26-1.24-.32-1.59-.32-2.2,0-3.32,1.71-3.32,3.43,0,.85,.26,1.7,.85,2.32,.79,.81,1.86,.97,2.42,.97,.49,0,1.07-.16,1.27-.21l.58-1.01Zm-10.34-3.05c.23-1.06,.89-1.57,1.66-1.57,.5,0,.85,.21,1.06,.42,.36,.39,.4,.88,.41,1.15h-3.13Zm4.11,3.01c-.34,.13-.97,.36-1.75,.36-.7,0-1.4-.18-1.88-.69-.56-.61-.57-1.45-.57-1.85h4.4c-.01-.52-.04-1.55-.58-2.3-.49-.66-1.23-.97-2.06-.97-1.71,0-2.94,1.37-2.94,3.36,0,2.24,1.45,3.34,3.36,3.34,.72,0,1.19-.14,1.4-.21l.61-1.05Zm-11.17-4.23c.21-.09,.71-.3,1.44-.3,.48,0,1.11,.09,1.59,.69,.36,.47,.52,1.11,.52,1.68,0,1-.49,2.54-2.12,2.54-.75,0-1.23-.3-1.42-.43v-4.18Zm0-3.8h-1.08v8.64c.61,.34,1.58,.65,2.46,.65,2.14,0,3.35-1.58,3.35-3.51,0-1.82-1.06-3.19-2.91-3.19-.48,0-.91,.08-1.23,.14l-.58,.85v-3.58Zm-6.43,5.02c.23-1.06,.89-1.57,1.66-1.57,.5,0,.85,.21,1.06,.42,.36,.39,.4,.88,.41,1.15h-3.13Zm4.11,3.01c-.34,.13-.97,.36-1.75,.36-.7,0-1.4-.18-1.88-.69-.56-.61-.57-1.45-.57-1.85h4.4c-.01-.52-.04-1.55-.58-2.3-.49-.66-1.23-.97-2.06-.97-1.71,0-2.94,1.37-2.94,3.36,0,2.24,1.45,3.34,3.36,3.34,.72,0,1.19-.14,1.4-.21l.61-1.05Zm-.88-7.08v-.85l-2.42,.93v.87l2.42-.94Zm-5.69,1.79h-1.1v5.11c-.52,.35-1.18,.53-1.7,.53-1.29,0-1.5-.79-1.5-1.79v-3.85h-1.11v4.25c0,1.27,.57,2.3,2.26,2.3,.16,0,.79-.01,1.37-.22l.67-.97v1.03h1.1v-6.39Zm-11.41,5.68c-2.2,0-3.53-1.75-3.53-3.83,0-2.21,1.46-3.92,3.47-3.92s3.49,1.6,3.49,3.87c0,1.99-1.26,3.88-3.43,3.88m4.9,1.28l-1.66-1.6c.36-.35,1.47-1.44,1.47-3.57,0-2.65-1.96-4.76-4.79-4.76-2.96,0-4.75,2.35-4.75,4.85,0,2.64,1.89,4.73,4.76,4.73,1.32,0,2.1-.44,2.37-.59l1.76,1.73,.83-.79Zm-14.79-6.96h-1.1v5.11c-.52,.35-1.18,.53-1.7,.53-1.29,0-1.5-.79-1.5-1.79v-3.85h-1.11v4.25c0,1.27,.57,2.3,2.26,2.3,.16,0,.79-.01,1.37-.22l.67-.97v1.03h1.1v-6.39Zm-8.11,5.3c-.25,.12-.8,.35-1.48,.35-1.24,0-2.06-.84-2.06-2.3,0-.83,.22-1.67,.85-2.17,.49-.4,1-.43,1.23-.43,.52,0,1.01,.16,1.45,.4v4.15Zm1.1-8.05h-1.1v2.98c-.62-.34-1.29-.39-1.62-.39-1.99,0-3.09,1.65-3.09,3.47s1.02,3.23,3.12,3.23c.48,0,.75-.08,1-.16l.6-.89v.89h1.1v-9.13Zm-14.53,5.02c.23-1.06,.89-1.57,1.66-1.57,.5,0,.85,.21,1.06,.42,.36,.39,.4,.88,.41,1.15h-3.13Zm4.11,3.01c-.34,.13-.97,.36-1.75,.36-.7,0-1.4-.18-1.88-.69-.56-.61-.57-1.45-.57-1.85h4.4c-.01-.52-.04-1.55-.58-2.3-.49-.66-1.23-.97-2.06-.97-1.71,0-2.94,1.37-2.94,3.36,0,2.24,1.45,3.34,3.36,3.34,.72,0,1.19-.14,1.4-.21l.61-1.05Zm-.88-7.08v-.85l-2.42,.93v.87l2.42-.94Zm-4.73,7.3c-.38,.16-.65,.18-.78,.18-.22,0-.68-.05-.79-.66-.03-.14-.03-.22-.03-.92v-3.3h1.32v-.81h-1.32v-1.59l-1.11,.35v1.24h-.14l-.61,.81h.75v3.82c0,.68,0,1.05,.31,1.42,.27,.35,.72,.49,1.16,.49,.21,0,.39-.04,.57-.08l.66-.96Zm-5.01-8.41c-.36,0-.62,.3-.62,.63s.27,.63,.62,.63,.62-.27,.62-.63-.28-.63-.62-.63m.56,2.9h-1.1v6.39h1.1v-6.39Zm-4.26,2.57c-.39-.17-.84-.38-.84-.91,0-.47,.32-.98,1.18-.98,.49,0,.96,.18,1.32,.5v-.98c-.19-.1-.74-.36-1.47-.36-1.26,0-2.17,.79-2.17,1.89s.89,1.49,1.36,1.68l.44,.16c.41,.17,1,.4,1,1.07,0,.47-.35,1.04-1.19,1.04-.36,0-.72-.12-1.01-.23-.3-.13-.46-.23-.62-.34v1.02c.56,.25,1.14,.41,1.75,.41,1.41,0,2.24-.9,2.24-1.97s-.78-1.48-1.37-1.76l-.6-.25Zm-4.88-1.28c.3-.21,.82-.5,1.44-.5,.45,0,.75,.13,1.01,.25v-1.03c-.21-.08-.36-.13-.71-.13-.58,0-.98,.17-1.14,.23l-.6,.85v-.96h-1.12v6.39h1.12v-5.1Zm-6.47,.99c.23-1.06,.89-1.57,1.66-1.57,.5,0,.85,.21,1.06,.42,.36,.39,.4,.88,.41,1.15h-3.13Zm4.11,3.01c-.34,.13-.97,.36-1.75,.36-.7,0-1.4-.18-1.88-.69-.56-.61-.57-1.45-.57-1.85h4.4c-.01-.52-.04-1.55-.58-2.3-.49-.66-1.23-.97-2.06-.97-1.71,0-2.94,1.37-2.94,3.36,0,2.24,1.45,3.34,3.36,3.34,.72,0,1.19-.14,1.4-.21l.61-1.05Zm-5.77-5.29h-1.07l-1.8,5.17-1.89-5.17h-1.16l2.44,6.39h1.09l2.39-6.39Zm-7.27-2.9c-.36,0-.62,.3-.62,.63s.27,.63,.62,.63,.62-.27,.62-.63-.28-.63-.62-.63m.56,2.9h-1.1v6.39h1.1v-6.39Zm-7.01,6.39v-5.11c.54-.36,1.19-.53,1.7-.53,1.31,0,1.5,.8,1.5,1.9v3.74h1.11v-4.19c0-.6-.01-1.27-.66-1.82-.57-.48-1.25-.53-1.6-.53-.19,0-.8,.01-1.37,.22l-.67,.97v-1.03h-1.1v6.39h1.1Zm-3.92-9.13v5.15c0,.8,.01,1.38-.22,1.94-.39,.91-1.32,1.36-2.33,1.36-1.28,0-2.1-.71-2.37-1.47-.17-.52-.17-1.26-.17-1.82v-5.15h-1.21v5.65c0,.96,.09,1.99,.98,2.79,.74,.66,1.73,.92,2.76,.92,1.14,0,2.5-.36,3.23-1.49,.46-.7,.52-1.37,.52-2.08v-5.8h-1.19Z"/><path class="j" d="M254.71,80.84h-5.19v-2.45h3.73v-2.19h-3.73v-2.15h4.35v-2.21h-7.27v11.21h6.84l1.27-2.22Zm-16.52-6.93h.92c.62,0,1.16,0,1.53,.27,.24,.16,.49,.49,.49,1,0,.65-.41,1.13-1,1.27-.25,.06-.48,.06-.83,.08l-1.11,1.57v-4.19Zm4.1,3.88c.37-.22,1.03-.62,1.43-1.51,.19-.4,.29-.84,.29-1.3,0-2.21-1.84-3.13-3.59-3.13h-5.08v11.21h2.86v-4.72c.64,0,.72,0,1.27-.03l2.86,4.75h3.19l-3.22-5.27Zm-12.21-5.94v6.62c0,1.52-.4,2.75-2.18,2.75-1.94,0-2.22-1.38-2.22-2.97v-6.4h-2.92v6.99c0,.78,.03,2.37,1.41,3.45,.62,.49,1.76,1.06,3.68,1.06s3.72-.46,4.6-2.08c.49-.91,.52-1.95,.52-2.65v-6.77h-2.9Zm-8.47,8.99h-5.19v-2.45h3.73v-2.19h-3.73v-2.15h4.35v-2.21h-7.27v11.21h6.84l1.27-2.22Zm-10.48-8.99h-2.94v11.21h2.94v-11.21Zm-11.34,2.06h.92c.62,0,1.16,0,1.53,.27,.24,.16,.49,.49,.49,1,0,.65-.41,1.13-1,1.27-.25,.06-.48,.06-.83,.08l-1.11,1.57v-4.19Zm4.1,3.88c.37-.22,1.03-.62,1.43-1.51,.19-.4,.29-.84,.29-1.3,0-2.21-1.84-3.13-3.59-3.13h-5.08v11.21h2.86v-4.72c.64,0,.71,0,1.27-.03l2.86,4.75h3.19l-3.22-5.27Zm-10.34-8v-1.75l-3.71,1.43v1.72l3.71-1.4Zm2.24,11.05h-5.19v-2.45h3.73v-2.19h-3.73v-2.15h4.35v-2.21h-7.27v11.21h6.84l1.27-2.22Zm-15.12-6.91h1.26c.87,0,1.64,.4,1.64,1.38,0,.4-.16,.76-.46,1.02-.43,.37-.99,.38-1.27,.38l-1.16,1.65v-4.43Zm0,4.69h1.45c.86-.02,2.76-.05,3.83-1.57,.35-.51,.56-1.18,.56-1.84,0-2.24-1.82-3.35-3.83-3.35h-4.92v11.21h2.92v-4.45Zm-8.18-6.76v6.62c0,1.52-.4,2.75-2.18,2.75-1.94,0-2.22-1.38-2.22-2.97v-6.4h-2.92v6.99c0,.78,.03,2.37,1.41,3.45,.62,.49,1.76,1.06,3.68,1.06s3.72-.46,4.6-2.08c.49-.91,.52-1.95,.52-2.65v-6.77h-2.9Zm-16.75,10.81c1.52,.63,2.89,.68,3.3,.68,2.68,0,4.21-1.67,4.21-3.57,0-2.11-1.62-2.86-2.41-3.23l-.81-.33c-.68-.32-1.37-.62-1.37-1.4,0-.46,.3-1.21,1.49-1.21,.98,0,1.79,.37,2.54,1v-2.4c-.94-.44-1.81-.65-2.86-.65-2.86,0-4.07,1.87-4.07,3.49,0,2.08,1.79,2.88,2.62,3.23l.64,.25c.6,.27,1.29,.57,1.29,1.4,0,.38-.17,.75-.43,.97-.25,.21-.67,.37-1.22,.37-.59,0-1.27-.19-1.87-.46-.54-.25-.83-.48-1.05-.65v2.51Z"/><path class="j" d="M272.57,63.75h-5.19v-2.45h3.73v-2.19h-3.73v-2.15h4.35v-2.21h-7.27v11.21h6.84l1.27-2.22Zm-10.48-8.99h-2.94v11.21h2.94v-11.21Zm-4.84,5.02h-4.24l-1.14,2.01h2.65l-.03,2.13c-.38,.14-.89,.33-1.7,.33-2.54,0-3.89-1.84-3.89-3.86,0-2.22,1.7-3.83,4.24-3.83,1.68,0,2.84,.7,3.33,1v-2.51c-1.25-.4-2.38-.59-3.68-.59-4.56,0-6.91,2.84-6.91,5.95,0,3.48,2.51,5.83,6.49,5.83,1.67,0,3.3-.41,4.84-1.08l.03-5.4Zm-18.77,4.26c-1.91,0-3.05-1.62-3.05-3.68s1.21-3.72,3.05-3.72,3.02,1.6,3.02,3.76c0,1.7-.94,3.64-3.02,3.64m6.11-3.73c0-3.14-2.24-5.83-6.11-5.83s-6.14,2.6-6.14,5.89,2.3,5.89,6.21,5.89,6.05-2.86,6.05-5.95m-12.09,3.43h-5.16v-8.97h-2.94v11.21h6.79l1.3-2.24Zm-15.86,.3c-1.91,0-3.05-1.62-3.05-3.68s1.21-3.72,3.05-3.72,3.02,1.6,3.02,3.76c0,1.7-.94,3.64-3.02,3.64m6.11-3.73c0-3.14-2.24-5.83-6.11-5.83s-6.14,2.6-6.14,5.89,2.3,5.89,6.21,5.89,6.05-2.86,6.05-5.95m-13.94-5.54h-2.82v6.08l-5.48-6.08h-2.57v11.21h2.84v-6.81l6.15,6.81h1.89v-11.21Zm-13.23,0h-2.94v4.21h-4.37v-4.21h-2.92v11.21h2.92v-4.78h4.37v4.78h2.94v-11.21Zm-11.4,8.85c-.92,.38-1.92,.6-2.92,.6-2.6,0-4.13-1.68-4.13-3.84s1.41-3.78,3.89-3.78c1.33,0,2.25,.59,2.65,.84v-2.49c-.76-.22-1.73-.46-3-.46-4.35,0-6.59,2.86-6.59,6.02s2.37,5.76,6.38,5.76c1.24,0,1.94-.19,2.35-.3l1.37-2.35Zm-10.89,.14h-5.19v-2.45h3.73v-2.19h-3.73v-2.15h4.35v-2.21h-7.27v11.21h6.84l1.27-2.22Zm-12.1-6.77h3.18v-2.22h-9.3v2.22h3.21v8.99h2.92v-8.99Z"/><path class="j" d="M232.16,46.67h-5.19v-2.45h3.73v-2.19h-3.73v-2.15h4.35v-2.21h-7.27v11.21h6.84l1.27-2.22Zm-17.45-6.81h1.19c2.03,.03,3.38,1.3,3.38,3.42,0,1.1-.38,2.49-1.81,3.14-.67,.3-1.32,.32-1.94,.32h-.83v-6.88Zm-2.9,9.04h4.41c1.26,0,3.07-.06,4.59-1.6,1-1.02,1.57-2.49,1.57-4.1,0-3.51-2.44-5.51-5.56-5.51h-5.02v11.21Zm-5.45-2.22h-5.19v-2.45h3.73v-2.19h-3.73v-2.15h4.35v-2.21h-7.27v11.21h6.84l1.27-2.22Zm-8.94-.02h-5.16v-8.97h-2.94v11.21h6.79l1.3-2.24Zm-15.86,.3c-1.91,0-3.05-1.62-3.05-3.69s1.21-3.72,3.05-3.72,3.02,1.6,3.02,3.76c0,1.7-.94,3.64-3.02,3.64m6.11-3.73c0-3.14-2.24-5.83-6.11-5.83s-6.15,2.6-6.15,5.89,2.3,5.89,6.21,5.89,6.05-2.86,6.05-5.95m-13.09,3.3c-.92,.38-1.92,.6-2.92,.6-2.6,0-4.13-1.68-4.13-3.84,0-2.05,1.41-3.78,3.89-3.78,1.33,0,2.26,.59,2.65,.84v-2.49c-.76-.22-1.73-.46-3-.46-4.35,0-6.59,2.86-6.59,6.02s2.36,5.76,6.38,5.76c1.24,0,1.94-.19,2.35-.3l1.37-2.35Zm-12.8-10.91v-1.75l-3.71,1.43v1.72l3.71-1.4Zm2.24,11.05h-5.19v-2.45h3.73v-2.19h-3.73v-2.15h4.35v-2.21h-7.27v11.21h6.84l1.27-2.22Z"/></svg>